<svg width="16" height="16" viewBox="0 0 16 16" fill="none" xmlns="http://www.w3.org/2000/svg">
<path d="M15.4666 3.03589C15.1699 2.69702 14.7471 2.51038 14.276 2.51038H2.88757L2.77295 1.651C2.64941 0.72522 2.00488 0 1.30554 0H0.46875C0.209839 0 0 0.209839 0 0.46875C0 0.727661 0.209839 0.9375 0.46875 0.9375H1.30554C1.45593 0.9375 1.77441 1.25549 1.84363 1.7749L3.18542 11.8386C3.24451 12.2822 3.47241 12.6975 3.82715 13.0081C4.09021 13.2384 4.40112 13.3916 4.72681 13.4557C4.59412 13.6997 4.51868 13.9792 4.51868 14.276C4.51868 15.2267 5.29211 16 6.24268 16C7.19324 16 7.96667 15.2267 7.96667 14.276C7.96667 13.9928 7.89758 13.7256 7.776 13.4896H10.2323C10.1107 13.7256 10.0416 13.9928 10.0416 14.276C10.0416 15.2267 10.8151 16 11.7656 16C12.7162 16 13.4896 15.2267 13.4896 14.276C13.4896 13.9928 13.4205 13.7256 13.299 13.4896H14.5271C14.7859 13.4896 14.9958 13.2797 14.9958 13.0209C14.9958 12.762 14.7859 12.5521 14.5271 12.5521H5.07117C4.61316 12.5521 4.17517 12.1686 4.11462 11.7146L4.0166 10.9791H7.66492C7.66504 10.9791 7.66516 10.9792 7.66528 10.9792C7.66541 10.9792 7.66553 10.9791 7.66577 10.9791H10.6772C10.6774 10.9791 10.6775 10.9792 10.6777 10.9792C10.6779 10.9792 10.6779 10.9791 10.678 10.9791H13.2719C13.7194 10.9791 14.1611 10.8081 14.5159 10.4977C14.8706 10.1871 15.0985 9.77173 15.1576 9.32812L15.83 4.2854C15.8922 3.81848 15.7632 3.37476 15.4666 3.03589V3.03589ZM7.02917 14.276C7.02917 14.7097 6.67639 15.0625 6.24268 15.0625C5.80908 15.0625 5.45618 14.7097 5.45618 14.276C5.45618 13.8424 5.80908 13.4896 6.24268 13.4896C6.67639 13.4896 7.02917 13.8424 7.02917 14.276V14.276ZM12.5521 14.276C12.5521 14.7097 12.1993 15.0625 11.7656 15.0625C11.3319 15.0625 10.9791 14.7097 10.9791 14.276C10.9791 13.8424 11.3319 13.4896 11.7656 13.4896C12.1993 13.4896 12.5521 13.8424 12.5521 14.276V14.276ZM14.7611 3.65344C14.8772 3.78601 14.9268 3.96631 14.9006 4.16138L14.6188 6.276H11.4293L11.6178 3.44788H14.276C14.4729 3.44788 14.6451 3.52087 14.7611 3.65344V3.65344ZM8.10425 10.0416L7.91565 7.2135H10.4272L10.2386 10.0416H8.10425ZM7.85315 6.276L7.66467 3.44788H10.6782L10.4897 6.276H7.85315ZM6.7251 3.44788L6.91357 6.276H3.38953L3.01245 3.44788H6.7251ZM3.51453 7.2135H6.97607L7.16467 10.0416H3.8916L3.51453 7.2135ZM13.2719 10.0416H11.1782L11.3668 7.2135H14.4938L14.2284 9.20422C14.1678 9.6582 13.7297 10.0416 13.2719 10.0416Z" fill="white"/>
</svg>
