<svg width="16" height="16" viewBox="0 0 16 16" fill="none" xmlns="http://www.w3.org/2000/svg">
<path d="M9.70379 3.58205L9.93214 4.04474C9.94182 4.06435 9.95137 4.08371 9.96078 4.10282C10.137 4.46034 10.2699 4.73019 10.4701 4.94553C10.6464 5.1352 10.8579 5.28883 11.0927 5.39789C11.3594 5.5217 11.6571 5.56479 12.0516 5.62187C12.0727 5.62492 12.094 5.62801 12.1157 5.63116L12.6263 5.70535C13.4092 5.81912 13.962 5.89995 14.3658 5.9967C14.7776 6.09534 14.9384 6.19074 15.0126 6.26893C15.2202 6.48774 15.3179 6.78855 15.2786 7.08759C15.2645 7.19445 15.1905 7.36614 14.9154 7.68797C14.6455 8.0036 14.2458 8.39393 13.6793 8.94617L13.3098 9.30632C13.2941 9.32159 13.2787 9.33665 13.2634 9.35151C12.9778 9.62955 12.7623 9.83941 12.6193 10.0963C12.4934 10.3226 12.4127 10.5712 12.3815 10.8282C12.3462 11.1201 12.3972 11.4166 12.4648 11.8094C12.4684 11.8304 12.4721 11.8516 12.4758 11.8732L12.563 12.3817C12.6967 13.1615 12.7907 13.7123 12.8235 14.1262C12.8569 14.5483 12.8158 14.7307 12.7644 14.8254C12.6205 15.0905 12.3646 15.2764 12.068 15.3314C11.962 15.351 11.7759 15.3337 11.3848 15.1715C11.0012 15.0124 10.5065 14.7528 9.80618 14.3847L9.34948 14.1446C9.33012 14.1344 9.31102 14.1243 9.29216 14.1144C8.93949 13.9287 8.6733 13.7886 8.3848 13.732C8.13068 13.6822 7.86931 13.6822 7.61519 13.732C7.32669 13.7886 7.0605 13.9287 6.70783 14.1144C6.68897 14.1243 6.66987 14.1344 6.65051 14.1446L6.19381 14.3847C5.49352 14.7528 4.99878 15.0124 4.61521 15.1715C4.22411 15.3337 4.03795 15.351 3.93198 15.3314C3.63542 15.2764 3.37953 15.0905 3.23558 14.8254C3.18414 14.7307 3.14311 14.5483 3.17653 14.1262C3.20931 13.7123 3.30326 13.1615 3.437 12.3817L3.52422 11.8732C3.52792 11.8516 3.53158 11.8304 3.53519 11.8094C3.6028 11.4166 3.65383 11.1201 3.61848 10.8282C3.58733 10.5712 3.50657 10.3226 3.38066 10.0963C3.23771 9.83941 3.02216 9.62955 2.73658 9.3515C2.72132 9.33664 2.70585 9.32159 2.69019 9.30632L2.32071 8.94617C1.75417 8.39393 1.35445 8.0036 1.08462 7.68797C0.809485 7.36614 0.735464 7.19445 0.72141 7.08759C0.682079 6.78855 0.77982 6.48774 0.987412 6.26893C1.06159 6.19074 1.22239 6.09534 1.63414 5.9967C2.03797 5.89995 2.59077 5.81912 3.37372 5.70535L3.88433 5.63116C3.90597 5.62801 3.92733 5.62492 3.94842 5.62187C4.34288 5.56479 4.64061 5.5217 4.90727 5.39789C5.14213 5.28883 5.35359 5.1352 5.52989 4.94553C5.73004 4.73019 5.86302 4.46034 6.03921 4.10282C6.04862 4.08371 6.05817 4.06435 6.06785 4.04474L6.2962 3.58205C6.64634 2.87258 6.89404 2.37181 7.11084 2.01764C7.3319 1.65653 7.47232 1.53307 7.5696 1.48669C7.84185 1.35687 8.15814 1.35687 8.43039 1.48669C8.52767 1.53307 8.66809 1.65653 8.88915 2.01764C9.10595 2.37181 9.35365 2.87258 9.70379 3.58205Z" stroke="black"/>
</svg>
