<svg id="Capa_1" enable-background="new 0 0 512 512" height="512" viewBox="0 0 512 512" width="512" xmlns="http://www.w3.org/2000/svg"><g><path d="m476.983 232.869h-6.023l-18.929-83.561c-2.601-11.476-12.626-19.49-24.392-19.49h-76.467v-25.012c0-19.309-15.708-35.017-35.017-35.017-11.868 0-269.266 0-281.137 0-19.31 0-35.018 15.708-35.018 35.017v246.12c0 19.299 15.708 35.017 35.017 35.017h28.354c6.913 32.116 35.537 56.268 69.694 56.268s62.781-24.152 69.694-56.268h144c6.913 32.116 35.537 56.268 69.694 56.268 34.617 0 63.551-24.792 69.954-57.558 14.748-4.122 25.593-17.679 25.593-33.727v-83.041c0-19.309-15.708-35.016-35.017-35.016zm5.002 35.017v75.007c-10.905-25.412-36.178-43.251-65.532-43.251-29.134 0-54.236 17.569-65.282 42.671v-79.429h125.811c2.762-.001 5.003 2.24 5.003 5.002zm-58.348-108.053 16.548 73.036h-89.013v-73.036zm-198.687-60.029v54.226l-43.771-17.579c-3.575-1.438-7.596-1.444-11.186 0l-43.771 17.579v-54.226zm-194.935 251.122v-246.12c0-2.761 2.241-5.002 5.002-5.002h61.19v76.427c0 10.603 10.722 17.883 20.6 13.927l58.779-23.601 58.779 23.601c9.895 3.958 20.6-3.341 20.6-13.927v-76.427h61.19c2.761 0 5.002 2.241 5.002 5.002v251.123h-118.398c-6.913-32.136-35.537-56.288-69.694-56.288s-62.781 24.152-69.694 56.288h-28.354c-2.761 0-5.002-2.251-5.002-5.003zm103.05 61.27c-28.829 0-49.044-29.074-38.459-56.267 16.499-42.069 79.729-30.7 79.729 15.007 0 22.811-18.564 41.26-41.27 41.26zm283.388 0c-28.959 0-49.022-29.255-38.449-56.267 6.013-15.357 20.98-26.273 38.449-26.273 29.02 0 49.032 29.37 38.439 56.288-6.003 15.347-20.97 26.252-38.439 26.252z"/><path d="m214.796 251.331h60.755c8.288 0 15.007-6.719 15.007-15.007s-6.719-15.007-15.007-15.007h-60.755c-8.288 0-15.007 6.719-15.007 15.007s6.719 15.007 15.007 15.007z"/><path d="m275.552 289.607h-40.813c-8.288 0-15.007 6.719-15.007 15.007s6.719 15.007 15.007 15.007h40.813c8.288 0 15.007-6.719 15.007-15.007s-6.719-15.007-15.007-15.007z"/></g></svg>